<?xml version="1.0" encoding="UTF-8"?>
<svg width="1296" height="216" viewBox="0 0 1296 216" fill="none" xmlns="http://www.w3.org/2000/svg">
  <path d="M0 108C0 48.353 48.353 0 108 0H1188C1247.65 0 1296 48.353 1296 108V108C1296 167.647 1247.65 216 1188 216H108C48.353 216 0 167.647 0 108V108Z" fill="url(#paint0_linear_1_2)"/>
  <path d="M53.5 162.5V53.5H94.5C107.5 53.5 117.833 56.5 125.5 62.5C133.167 68.5 137 77.1667 137 88.5C137 99.8333 133.167 108.5 125.5 114.5C117.833 120.5 107.5 123.5 94.5 123.5H83V162.5H53.5ZM83 100.5H91C95.6667 100.5 99.1667 99.3333 101.5 97C103.833 94.6667 105 91.5 105 87.5C105 83.5 103.833 80.3333 101.5 78C99.1667 75.6667 95.6667 74.5 91 74.5H83V100.5Z" fill="white"/>
  <path d="M147.5 162.5V53.5H214.5V76.5H177V96H211V119H177V139.5H214.5V162.5H147.5Z" fill="white"/>
  <path d="M225.5 162.5V53.5H264C277.667 53.5 288.333 56.1667 296 61.5C303.667 66.8333 307.5 74.5 307.5 84.5C307.5 91.1667 305.667 96.8333 302 101.5C298.333 106.167 293.167 109.333 286.5 111C294.167 112 300 115.167 304 120.5C308 125.833 310 132.5 310 140.5C310 151.167 306.333 159.333 299 165C291.667 170.667 281.333 173.5 268 173.5C254.667 173.5 241.333 169.833 228 162.5H225.5ZM255 99H264C269.333 99 273.333 98 276 96C278.667 94 280 91 280 87C280 83 278.667 80 276 78C273.333 76 269.333 75 264 75H255V99ZM255 141H266C272 141 276.5 139.833 279.5 137.5C282.5 135.167 284 131.833 284 127.5C284 123.167 282.5 119.833 279.5 117.5C276.5 115.167 272 114 266 114H255V141Z" fill="white"/>
  <path d="M320.5 162.5V53.5H350V139.5H387.5V162.5H320.5Z" fill="white"/>
  <path d="M397.5 162.5V53.5H427V162.5H397.5Z" fill="white"/>
  <path d="M444.5 162.5V53.5H474V139.5H511.5V162.5H444.5Z" fill="white"/>
  <path d="M521.5 162.5V53.5H588.5V76.5H551V96H585V119H551V139.5H588.5V162.5H521.5Z" fill="white"/>
  <path d="M599.5 162.5V53.5H629V162.5H599.5Z" fill="white"/>
  <path d="M646.5 162.5V53.5H676V162.5H646.5Z" fill="white"/>
  <path d="M693.5 162.5V53.5H723V162.5H693.5Z" fill="white"/>
  <path d="M740.5 162.5V53.5H770V139.5H807.5V162.5H740.5Z" fill="white"/>
  <path d="M817.5 162.5V53.5H884.5V76.5H847V96H881V119H847V139.5H884.5V162.5H817.5Z" fill="white"/>
  <path d="M895.5 162.5V53.5H925V162.5H895.5Z" fill="white"/>
  <path d="M942.5 162.5V53.5H972V162.5H942.5Z" fill="white"/>
  <path d="M1125.5 108C1125.5 78.5 1149.5 54.5 1179 54.5C1208.5 54.5 1232.5 78.5 1232.5 108C1232.5 137.5 1208.5 161.5 1179 161.5C1149.5 161.5 1125.5 137.5 1125.5 108Z" fill="white"/>
  <path d="M1179 81.5C1179 78.1863 1181.69 75.5 1185 75.5C1188.31 75.5 1191 78.1863 1191 81.5V134.5C1191 137.814 1188.31 140.5 1185 140.5C1181.69 140.5 1179 137.814 1179 134.5V81.5Z" fill="url(#paint1_linear_1_2)"/>
  <path d="M1173 81.5C1173 78.1863 1170.31 75.5 1167 75.5C1163.69 75.5 1161 78.1863 1161 81.5V134.5C1161 137.814 1163.69 140.5 1167 140.5C1170.31 140.5 1173 137.814 1173 134.5V81.5Z" fill="url(#paint2_linear_1_2)"/>
  <path d="M1245 108C1245 104.686 1247.69 102 1251 102C1254.31 102 1257 104.686 1257 108V108C1257 111.314 1254.31 114 1251 114C1247.69 114 1245 111.314 1245 108V108Z" fill="url(#paint3_linear_1_2)"/>
  <path d="M1257 81.5C1257 78.1863 1259.69 75.5 1263 75.5C1266.31 75.5 1269 78.1863 1269 81.5V81.5C1269 84.8137 1266.31 87.5 1263 87.5C1259.69 87.5 1257 84.8137 1257 81.5V81.5Z" fill="url(#paint4_linear_1_2)"/>
  <path d="M1269 54.5C1269 51.1863 1271.69 48.5 1275 48.5C1278.31 48.5 1281 51.1863 1281 54.5V54.5C1281 57.8137 1278.31 60.5 1275 60.5C1271.69 60.5 1269 57.8137 1269 54.5V54.5Z" fill="url(#paint5_linear_1_2)"/>
  <defs>
    <linearGradient id="paint0_linear_1_2" x1="0" y1="108" x2="1296" y2="108" gradientUnits="userSpaceOnUse">
      <stop stop-color="#A700B9"/>
      <stop offset="1" stop-color="#FF9700"/>
    </linearGradient>
    <linearGradient id="paint1_linear_1_2" x1="1179" y1="108" x2="1191" y2="108" gradientUnits="userSpaceOnUse">
      <stop stop-color="#A700B9"/>
      <stop offset="1" stop-color="#FF9700"/>
    </linearGradient>
    <linearGradient id="paint2_linear_1_2" x1="1173" y1="108" x2="1161" y2="108" gradientUnits="userSpaceOnUse">
      <stop stop-color="#A700B9"/>
      <stop offset="1" stop-color="#FF9700"/>
    </linearGradient>
    <linearGradient id="paint3_linear_1_2" x1="1245" y1="108" x2="1257" y2="108" gradientUnits="userSpaceOnUse">
      <stop stop-color="#A700B9"/>
      <stop offset="1" stop-color="#FF9700"/>
    </linearGradient>
    <linearGradient id="paint4_linear_1_2" x1="1257" y1="81.5" x2="1269" y2="81.5" gradientUnits="userSpaceOnUse">
      <stop stop-color="#A700B9"/>
      <stop offset="1" stop-color="#FF9700"/>
    </linearGradient>
    <linearGradient id="paint5_linear_1_2" x1="1269" y1="54.5" x2="1281" y2="54.5" gradientUnits="userSpaceOnUse">
      <stop stop-color="#A700B9"/>
      <stop offset="1" stop-color="#FF9700"/>
    </linearGradient>
  </defs>
</svg> 