<svg xmlns="http://www.w3.org/2000/svg" viewBox="0 0 24 24" fill="#6c63ff" width="24" height="24">
  <path d="M19.728 10.686c-2.38 0-4.313 1.932-4.313 4.313 0 2.38 1.933 4.313 4.313 4.313 2.381 0 4.313-1.933 4.313-4.313 0-2.38-1.932-4.313-4.313-4.313zM7.79 10.686c-2.38 0-4.313 1.932-4.313 4.313 0 2.38 1.933 4.313 4.313 4.313 2.381 0 4.313-1.933 4.313-4.313 0-2.38-1.932-4.313-4.313-4.313zM13.758 4.686c-2.38 0-4.313 1.932-4.313 4.313 0 2.38 1.933 4.313 4.313 4.313 2.381 0 4.313-1.933 4.313-4.313 0-2.38-1.932-4.313-4.313-4.313z"/>
</svg> 